<mxfile host="app.diagrams.net" agent="Mozilla/5.0 (Macintosh; Intel Mac OS X 10_15_7) AppleWebKit/537.36 (KHTML, like Gecko) Chrome/138.0.0.0 Safari/537.36" version="28.0.4">
  <diagram name="Pagina-1" id="WrD_wArZM_Hn7EKuETNi">
    <mxGraphModel dx="1395" dy="1009" grid="1" gridSize="10" guides="1" tooltips="1" connect="1" arrows="1" fold="1" page="1" pageScale="1" pageWidth="827" pageHeight="1169" math="0" shadow="0">
      <root>
        <mxCell id="0" />
        <mxCell id="1" parent="0" />
        <mxCell id="hqOlZztDV6OPgy1f21PW-1" value="" style="shape=cube;whiteSpace=wrap;html=1;boundedLbl=1;backgroundOutline=1;darkOpacity=0.05;darkOpacity2=0.1;size=3;direction=east;flipH=1;fillColor=#e3c800;strokeColor=#B09500;fontColor=#000000;" vertex="1" parent="1">
          <mxGeometry x="149.5" y="170" width="60" height="60" as="geometry" />
        </mxCell>
        <mxCell id="hqOlZztDV6OPgy1f21PW-2" value="256 x 256" style="text;html=1;strokeColor=none;fillColor=none;align=center;verticalAlign=middle;whiteSpace=wrap;rounded=0;" vertex="1" parent="1">
          <mxGeometry x="130" y="250" width="99" height="24" as="geometry" />
        </mxCell>
        <mxCell id="hqOlZztDV6OPgy1f21PW-3" value="" style="shape=singleArrow;whiteSpace=wrap;html=1;" vertex="1" parent="1">
          <mxGeometry x="219.5" y="195" width="20" height="10" as="geometry" />
        </mxCell>
        <mxCell id="hqOlZztDV6OPgy1f21PW-4" value="" style="shape=cube;whiteSpace=wrap;html=1;boundedLbl=1;backgroundOutline=1;darkOpacity=0.05;darkOpacity2=0.1;size=3;direction=east;flipH=1;fillColor=#b1ddf0;strokeColor=#10739e;" vertex="1" parent="1">
          <mxGeometry x="259.5" y="196" width="74" height="8" as="geometry" />
        </mxCell>
        <mxCell id="hqOlZztDV6OPgy1f21PW-5" value="1 x 256" style="text;html=1;strokeColor=none;fillColor=none;align=center;verticalAlign=middle;whiteSpace=wrap;rounded=0;" vertex="1" parent="1">
          <mxGeometry x="247" y="250" width="99" height="24" as="geometry" />
        </mxCell>
        <mxCell id="hqOlZztDV6OPgy1f21PW-6" value="" style="shape=singleArrow;whiteSpace=wrap;html=1;" vertex="1" parent="1">
          <mxGeometry x="349.5" y="195" width="20" height="10" as="geometry" />
        </mxCell>
        <mxCell id="hqOlZztDV6OPgy1f21PW-7" value="1 x 256" style="text;html=1;strokeColor=none;fillColor=none;align=center;verticalAlign=middle;whiteSpace=wrap;rounded=0;" vertex="1" parent="1">
          <mxGeometry x="377" y="250" width="99" height="24" as="geometry" />
        </mxCell>
        <mxCell id="hqOlZztDV6OPgy1f21PW-8" value="" style="shape=cube;whiteSpace=wrap;html=1;boundedLbl=1;backgroundOutline=1;darkOpacity=0.05;darkOpacity2=0.1;size=3;direction=east;flipH=1;fillColor=#d5e8d4;strokeColor=#82b366;gradientColor=#97d077;" vertex="1" parent="1">
          <mxGeometry x="389.5" y="196" width="74" height="8" as="geometry" />
        </mxCell>
        <mxCell id="hqOlZztDV6OPgy1f21PW-9" value="" style="shape=cube;whiteSpace=wrap;html=1;boundedLbl=1;backgroundOutline=1;darkOpacity=0.05;darkOpacity2=0.1;size=7;direction=east;flipH=1;fillColor=#d5e8d4;strokeColor=#82b366;gradientColor=#97d077;" vertex="1" parent="1">
          <mxGeometry x="191.12" y="410" width="30" height="20" as="geometry" />
        </mxCell>
        <mxCell id="hqOlZztDV6OPgy1f21PW-10" value="" style="shape=cube;whiteSpace=wrap;html=1;boundedLbl=1;backgroundOutline=1;darkOpacity=0.05;darkOpacity2=0.1;size=7;direction=east;flipH=1;fillColor=#e3c800;strokeColor=#B09500;fontColor=#000000;" vertex="1" parent="1">
          <mxGeometry x="191.12" y="335" width="30" height="20" as="geometry" />
        </mxCell>
        <mxCell id="hqOlZztDV6OPgy1f21PW-11" value="" style="shape=cube;whiteSpace=wrap;html=1;boundedLbl=1;backgroundOutline=1;darkOpacity=0.05;darkOpacity2=0.1;size=7;direction=east;flipH=1;fillColor=#b1ddf0;strokeColor=#10739e;" vertex="1" parent="1">
          <mxGeometry x="191.12" y="372" width="30" height="20" as="geometry" />
        </mxCell>
        <mxCell id="hqOlZztDV6OPgy1f21PW-12" value="&lt;b&gt;Encoder output&lt;/b&gt;" style="text;html=1;strokeColor=none;fillColor=none;align=center;verticalAlign=middle;whiteSpace=wrap;rounded=0;" vertex="1" parent="1">
          <mxGeometry x="222" y="330" width="141.5" height="30" as="geometry" />
        </mxCell>
        <mxCell id="hqOlZztDV6OPgy1f21PW-13" value="&lt;b&gt;Mean encoder representation&lt;/b&gt;" style="text;html=1;strokeColor=none;fillColor=none;align=center;verticalAlign=middle;whiteSpace=wrap;rounded=0;" vertex="1" parent="1">
          <mxGeometry x="218" y="368.5" width="230" height="27" as="geometry" />
        </mxCell>
        <mxCell id="hqOlZztDV6OPgy1f21PW-14" value="&lt;b&gt;Encoder output with attention&lt;/b&gt;" style="text;html=1;strokeColor=none;fillColor=none;align=center;verticalAlign=middle;whiteSpace=wrap;rounded=0;" vertex="1" parent="1">
          <mxGeometry x="234.87" y="405" width="196.25" height="30" as="geometry" />
        </mxCell>
      </root>
    </mxGraphModel>
  </diagram>
</mxfile>
